<?xml version="1.0" encoding="UTF-8" standalone="no"?>
<!DOCTYPE svg PUBLIC "-//W3C//DTD SVG 1.1//EN"
 "http://www.w3.org/Graphics/SVG/1.1/DTD/svg11.dtd">
<!-- Generated by graphviz version 5.0.0 (20220707.1540)
 -->
<!-- Title: StorageDiagram Pages: 1 -->
<svg width="1125pt" height="854pt"
 viewBox="0.00 0.00 1125.37 853.80" xmlns="http://www.w3.org/2000/svg" xmlns:xlink="http://www.w3.org/1999/xlink">
<g id="graph0" class="graph" transform="scale(1 1) rotate(0) translate(4 849.8)">
<title>StorageDiagram</title>
<polygon fill="white" stroke="transparent" points="-4,4 -4,-849.8 1121.37,-849.8 1121.37,4 -4,4"/>
<!-- 9 -->
<g id="node1" class="node">
<title>9</title>
<polygon fill="#f2f2f2" stroke="black" points="0,-315.5 0,-637.9 510.88,-637.9 510.88,-315.5 0,-315.5"/>
<text text-anchor="middle" x="255.44" y="-621.3" font-family="Courier New" font-size="14.00">StorageDemo &lt;&lt;Contract&gt;&gt;</text>
<polyline fill="none" stroke="black" points="0,-613.1 510.88,-613.1 "/>
<text text-anchor="middle" x="24.8" y="-596.5" font-family="Courier New" font-size="14.00">slot</text>
<polyline fill="none" stroke="black" points="0,-588.3 49.61,-588.3 "/>
<text text-anchor="middle" x="24.8" y="-571.7" font-family="Courier New" font-size="14.00">0</text>
<polyline fill="none" stroke="black" points="0,-563.5 49.61,-563.5 "/>
<text text-anchor="middle" x="24.8" y="-546.9" font-family="Courier New" font-size="14.00">1</text>
<polyline fill="none" stroke="black" points="0,-538.7 49.61,-538.7 "/>
<text text-anchor="middle" x="24.8" y="-522.1" font-family="Courier New" font-size="14.00">2</text>
<polyline fill="none" stroke="black" points="0,-513.9 49.61,-513.9 "/>
<text text-anchor="middle" x="24.8" y="-497.3" font-family="Courier New" font-size="14.00">3</text>
<polyline fill="none" stroke="black" points="0,-489.1 49.61,-489.1 "/>
<text text-anchor="middle" x="24.8" y="-472.5" font-family="Courier New" font-size="14.00">4</text>
<polyline fill="none" stroke="black" points="0,-464.3 49.61,-464.3 "/>
<text text-anchor="middle" x="24.8" y="-447.7" font-family="Courier New" font-size="14.00">5</text>
<polyline fill="none" stroke="black" points="0,-439.5 49.61,-439.5 "/>
<text text-anchor="middle" x="24.8" y="-422.9" font-family="Courier New" font-size="14.00">6</text>
<polyline fill="none" stroke="black" points="0,-414.7 49.61,-414.7 "/>
<text text-anchor="middle" x="24.8" y="-398.1" font-family="Courier New" font-size="14.00">7</text>
<polyline fill="none" stroke="black" points="0,-389.9 49.61,-389.9 "/>
<text text-anchor="middle" x="24.8" y="-373.3" font-family="Courier New" font-size="14.00">8</text>
<polyline fill="none" stroke="black" points="0,-365.1 49.61,-365.1 "/>
<text text-anchor="middle" x="24.8" y="-348.5" font-family="Courier New" font-size="14.00">9</text>
<polyline fill="none" stroke="black" points="0,-340.3 49.61,-340.3 "/>
<text text-anchor="middle" x="24.8" y="-323.7" font-family="Courier New" font-size="14.00">10</text>
<polyline fill="none" stroke="black" points="49.61,-315.5 49.61,-613.1 "/>
<text text-anchor="middle" x="280.24" y="-596.5" font-family="Courier New" font-size="14.00">type: &lt;inherited contract&gt;.variable (bytes)</text>
<polyline fill="none" stroke="black" points="49.61,-588.3 510.88,-588.3 "/>
<text text-anchor="middle" x="280.02" y="-571.7" font-family="Courier New" font-size="14.00">bytes: reference_bytes (32)</text>
<polyline fill="none" stroke="black" points="49.61,-563.5 510.88,-563.5 "/>
<text text-anchor="middle" x="280.23" y="-546.9" font-family="Courier New" font-size="14.00">string: reference_string_length_less31 (32)</text>
<polyline fill="none" stroke="black" points="49.61,-538.7 510.88,-538.7 "/>
<text text-anchor="middle" x="279.84" y="-522.1" font-family="Courier New" font-size="14.00">string: reference_string_length_greater31 (32)</text>
<polyline fill="none" stroke="black" points="49.61,-513.9 510.88,-513.9 "/>
<text text-anchor="middle" x="280.03" y="-497.3" font-family="Courier New" font-size="14.00">string[]: reference_string_array (32)</text>
<polyline fill="none" stroke="black" points="49.61,-489.1 510.88,-489.1 "/>
<text text-anchor="middle" x="280.13" y="-472.5" font-family="Courier New" font-size="14.00">bytes[]: reference_bytes_array (32)</text>
<polyline fill="none" stroke="black" points="49.61,-464.3 510.88,-464.3 "/>
<text text-anchor="middle" x="280.03" y="-447.7" font-family="Courier New" font-size="14.00">bytes8[]: reference_bytes8_array (32)</text>
<polyline fill="none" stroke="black" points="49.61,-439.5 510.88,-439.5 "/>
<text text-anchor="middle" x="279.93" y="-422.9" font-family="Courier New" font-size="14.00">uint256[]: reference_uint256_array (32)</text>
<polyline fill="none" stroke="black" points="49.61,-414.7 510.88,-414.7 "/>
<text text-anchor="middle" x="280.13" y="-398.1" font-family="Courier New" font-size="14.00">uint8[]: reference_uint8_array (32)</text>
<polyline fill="none" stroke="black" points="49.61,-389.9 510.88,-389.9 "/>
<text text-anchor="middle" x="279.93" y="-373.3" font-family="Courier New" font-size="14.00">address[]: reference_address_array (32)</text>
<polyline fill="none" stroke="black" points="49.61,-365.1 510.88,-365.1 "/>
<text text-anchor="middle" x="280.23" y="-348.5" font-family="Courier New" font-size="14.00">bool[]: reference_bool_array (32)</text>
<polyline fill="none" stroke="black" points="49.61,-340.3 510.88,-340.3 "/>
<text text-anchor="middle" x="280.24" y="-323.7" font-family="Courier New" font-size="14.00">mapping(uint256=&gt;Object): reference_struct_array (32)</text>
</g>
<!-- 1 -->
<g id="node2" class="node">
<title>1</title>
<polygon fill="#f2f2f2" stroke="black" points="546.88,-754.1 546.88,-845.3 1117.37,-845.3 1117.37,-754.1 546.88,-754.1"/>
<text text-anchor="middle" x="832.12" y="-828.7" font-family="Courier New" font-size="14.00">string[]: reference_string_array &lt;&lt;Array&gt;&gt;</text>
<text text-anchor="middle" x="832.12" y="-811.9" font-family="Courier New" font-size="14.00">0xc2575a0e9e593c00f959f8c92f12db2869c3395a3b0502d05e2516446f71f85b</text>
<polyline fill="none" stroke="black" points="546.88,-803.7 1117.37,-803.7 "/>
<text text-anchor="middle" x="655.58" y="-787.1" font-family="Courier New" font-size="14.00">offset</text>
<polyline fill="none" stroke="black" points="546.88,-778.9 764.29,-778.9 "/>
<text text-anchor="middle" x="655.58" y="-762.3" font-family="Courier New" font-size="14.00">0</text>
<polyline fill="none" stroke="black" points="764.29,-754.1 764.29,-803.7 "/>
<text text-anchor="middle" x="940.7" y="-787.1" font-family="Courier New" font-size="14.00">type: variable (bytes)</text>
<polyline fill="none" stroke="black" points="764.29,-778.9 1117.12,-778.9 "/>
<text text-anchor="middle" x="940.49" y="-762.3" font-family="Courier New" font-size="14.00">string (32)</text>
</g>
<!-- 9&#45;&gt;1 -->
<g id="edge1" class="edge">
<title>9:5&#45;&gt;1</title>
<path fill="none" stroke="black" d="M510.88,-501.7C565.47,-501.7 509.14,-705.26 546.88,-744.7 547.66,-745.52 548.45,-746.32 549.25,-747.12"/>
<polygon fill="black" stroke="black" points="546.94,-749.76 556.64,-754.03 551.72,-744.64 546.94,-749.76"/>
</g>
<!-- 2 -->
<g id="node3" class="node">
<title>2</title>
<polygon fill="#f2f2f2" stroke="black" points="546.88,-644.1 546.88,-735.3 1117.37,-735.3 1117.37,-644.1 546.88,-644.1"/>
<text text-anchor="middle" x="832.12" y="-718.7" font-family="Courier New" font-size="14.00">bytes[]: reference_bytes_array &lt;&lt;Array&gt;&gt;</text>
<text text-anchor="middle" x="832.12" y="-701.9" font-family="Courier New" font-size="14.00">0x8a35acfbc15ff81a39ae7d344fd709f28e8600b4aa8c65c6b64bfe7fe36bd19b</text>
<polyline fill="none" stroke="black" points="546.88,-693.7 1117.37,-693.7 "/>
<text text-anchor="middle" x="655.58" y="-677.1" font-family="Courier New" font-size="14.00">offset</text>
<polyline fill="none" stroke="black" points="546.88,-668.9 764.29,-668.9 "/>
<text text-anchor="middle" x="655.58" y="-652.3" font-family="Courier New" font-size="14.00">0</text>
<polyline fill="none" stroke="black" points="764.29,-644.1 764.29,-693.7 "/>
<text text-anchor="middle" x="940.7" y="-677.1" font-family="Courier New" font-size="14.00">type: variable (bytes)</text>
<polyline fill="none" stroke="black" points="764.29,-668.9 1117.12,-668.9 "/>
<text text-anchor="middle" x="940.29" y="-652.3" font-family="Courier New" font-size="14.00">bytes (32)</text>
</g>
<!-- 9&#45;&gt;2 -->
<g id="edge2" class="edge">
<title>9:7&#45;&gt;2</title>
<path fill="none" stroke="black" d="M510.88,-476.7C582.9,-476.7 495.12,-584.62 546.88,-634.7 547.71,-635.51 548.56,-636.31 549.41,-637.09"/>
<polygon fill="black" stroke="black" points="547.43,-640.01 557.28,-643.92 552.02,-634.72 547.43,-640.01"/>
</g>
<!-- 3 -->
<g id="node4" class="node">
<title>3</title>
<polygon fill="#f2f2f2" stroke="black" points="546.88,-534.1 546.88,-625.3 1117.37,-625.3 1117.37,-534.1 546.88,-534.1"/>
<text text-anchor="middle" x="832.12" y="-608.7" font-family="Courier New" font-size="14.00">bytes8[]: reference_bytes8_array &lt;&lt;Array&gt;&gt;</text>
<text text-anchor="middle" x="832.12" y="-591.9" font-family="Courier New" font-size="14.00">0x036b6384b5eca791c62761152d0c79bb0604c104a5fb6f4eb0703f3154bb3db0</text>
<polyline fill="none" stroke="black" points="546.88,-583.7 1117.37,-583.7 "/>
<text text-anchor="middle" x="643.08" y="-567.1" font-family="Courier New" font-size="14.00">offset</text>
<polyline fill="none" stroke="black" points="546.88,-558.9 739.29,-558.9 "/>
<text text-anchor="middle" x="643.08" y="-542.3" font-family="Courier New" font-size="14.00">0</text>
<polyline fill="none" stroke="black" points="739.29,-534.1 739.29,-583.7 "/>
<text text-anchor="middle" x="928" y="-567.1" font-family="Courier New" font-size="14.00">type: variable (bytes)</text>
<polyline fill="none" stroke="black" points="739.29,-558.9 1116.72,-558.9 "/>
<text text-anchor="middle" x="846" y="-542.3" font-family="Courier New" font-size="14.00">unallocated (24)</text>
<polyline fill="none" stroke="black" points="952.71,-534.1 952.71,-558.9 "/>
<text text-anchor="middle" x="1034.71" y="-542.3" font-family="Courier New" font-size="14.00">bytes8 (8)</text>
</g>
<!-- 9&#45;&gt;3 -->
<g id="edge3" class="edge">
<title>9:9&#45;&gt;3</title>
<path fill="none" stroke="black" d="M510.88,-451.7C547.05,-451.7 518.12,-502.75 546.88,-524.7 548.49,-525.93 550.12,-527.13 551.77,-528.31"/>
<polygon fill="black" stroke="black" points="549.93,-531.29 560.17,-534.01 553.85,-525.5 549.93,-531.29"/>
</g>
<!-- 4 -->
<g id="node5" class="node">
<title>4</title>
<polygon fill="#f2f2f2" stroke="black" points="546.88,-424.1 546.88,-515.3 1117.37,-515.3 1117.37,-424.1 546.88,-424.1"/>
<text text-anchor="middle" x="832.12" y="-498.7" font-family="Courier New" font-size="14.00">uint256[]: reference_uint256_array &lt;&lt;Array&gt;&gt;</text>
<text text-anchor="middle" x="832.12" y="-481.9" font-family="Courier New" font-size="14.00">0xf652222313e28459528d920b65115c16c04f3efc82aaedc97be59f3f377c0d3f</text>
<polyline fill="none" stroke="black" points="546.88,-473.7 1117.37,-473.7 "/>
<text text-anchor="middle" x="655.58" y="-457.1" font-family="Courier New" font-size="14.00">offset</text>
<polyline fill="none" stroke="black" points="546.88,-448.9 764.29,-448.9 "/>
<text text-anchor="middle" x="655.58" y="-432.3" font-family="Courier New" font-size="14.00">0</text>
<polyline fill="none" stroke="black" points="764.29,-424.1 764.29,-473.7 "/>
<text text-anchor="middle" x="940.7" y="-457.1" font-family="Courier New" font-size="14.00">type: variable (bytes)</text>
<polyline fill="none" stroke="black" points="764.29,-448.9 1117.12,-448.9 "/>
<text text-anchor="middle" x="940.69" y="-432.3" font-family="Courier New" font-size="14.00">uint256 (32)</text>
</g>
<!-- 9&#45;&gt;4 -->
<g id="edge4" class="edge">
<title>9:11&#45;&gt;4</title>
<path fill="none" stroke="black" d="M510.88,-426.7C519.35,-426.7 527.93,-426.85 536.58,-427.13"/>
<polygon fill="black" stroke="black" points="536.64,-430.64 546.77,-427.52 536.91,-423.64 536.64,-430.64"/>
</g>
<!-- 5 -->
<g id="node6" class="node">
<title>5</title>
<polygon fill="#f2f2f2" stroke="black" points="546.88,-314.1 546.88,-405.3 1117.37,-405.3 1117.37,-314.1 546.88,-314.1"/>
<text text-anchor="middle" x="832.12" y="-388.7" font-family="Courier New" font-size="14.00">uint8[]: reference_uint8_array &lt;&lt;Array&gt;&gt;</text>
<text text-anchor="middle" x="832.12" y="-371.9" font-family="Courier New" font-size="14.00">0xa66cc928b5edb82af9bd49922954155ab7b0942694bea4ce44661d9a8736c688</text>
<polyline fill="none" stroke="black" points="546.88,-363.7 1117.37,-363.7 "/>
<text text-anchor="middle" x="645.58" y="-347.1" font-family="Courier New" font-size="14.00">offset</text>
<polyline fill="none" stroke="black" points="546.88,-338.9 744.29,-338.9 "/>
<text text-anchor="middle" x="645.58" y="-322.3" font-family="Courier New" font-size="14.00">0</text>
<polyline fill="none" stroke="black" points="744.29,-314.1 744.29,-363.7 "/>
<text text-anchor="middle" x="930.8" y="-347.1" font-family="Courier New" font-size="14.00">type: variable (bytes)</text>
<polyline fill="none" stroke="black" points="744.29,-338.9 1117.32,-338.9 "/>
<text text-anchor="middle" x="852" y="-322.3" font-family="Courier New" font-size="14.00">unallocated (31)</text>
<polyline fill="none" stroke="black" points="959.71,-314.1 959.71,-338.9 "/>
<text text-anchor="middle" x="1038.51" y="-322.3" font-family="Courier New" font-size="14.00">uint8 (1)</text>
</g>
<!-- 9&#45;&gt;5 -->
<g id="edge5" class="edge">
<title>9:13&#45;&gt;5</title>
<path fill="none" stroke="black" d="M510.88,-402.7C519.35,-402.7 527.93,-402.55 536.58,-402.27"/>
<polygon fill="black" stroke="black" points="536.91,-405.76 546.77,-401.88 536.64,-398.76 536.91,-405.76"/>
</g>
<!-- 6 -->
<g id="node7" class="node">
<title>6</title>
<polygon fill="#f2f2f2" stroke="black" points="546.88,-204.1 546.88,-295.3 1117.37,-295.3 1117.37,-204.1 546.88,-204.1"/>
<text text-anchor="middle" x="832.12" y="-278.7" font-family="Courier New" font-size="14.00">address[]: reference_address_array &lt;&lt;Array&gt;&gt;</text>
<text text-anchor="middle" x="832.12" y="-261.9" font-family="Courier New" font-size="14.00">0xf3f7a9fe364faab93b216da50a3214154f22a0a2b415b23a84c8169e8b636ee3</text>
<polyline fill="none" stroke="black" points="546.88,-253.7 1117.37,-253.7 "/>
<text text-anchor="middle" x="639.08" y="-237.1" font-family="Courier New" font-size="14.00">offset</text>
<polyline fill="none" stroke="black" points="546.88,-228.9 731.29,-228.9 "/>
<text text-anchor="middle" x="639.08" y="-212.3" font-family="Courier New" font-size="14.00">0</text>
<polyline fill="none" stroke="black" points="731.29,-204.1 731.29,-253.7 "/>
<text text-anchor="middle" x="923.91" y="-237.1" font-family="Courier New" font-size="14.00">type: variable (bytes)</text>
<polyline fill="none" stroke="black" points="731.29,-228.9 1116.52,-228.9 "/>
<text text-anchor="middle" x="836" y="-212.3" font-family="Courier New" font-size="14.00">unallocated (12)</text>
<polyline fill="none" stroke="black" points="940.71,-204.1 940.71,-228.9 "/>
<text text-anchor="middle" x="1028.62" y="-212.3" font-family="Courier New" font-size="14.00">address (20)</text>
</g>
<!-- 9&#45;&gt;6 -->
<g id="edge6" class="edge">
<title>9:15&#45;&gt;6</title>
<path fill="none" stroke="black" d="M510.88,-377.7C547.05,-377.7 518.12,-326.65 546.88,-304.7 548.49,-303.47 550.12,-302.27 551.77,-301.09"/>
<polygon fill="black" stroke="black" points="553.85,-303.9 560.17,-295.39 549.93,-298.11 553.85,-303.9"/>
</g>
<!-- 7 -->
<g id="node8" class="node">
<title>7</title>
<polygon fill="#f2f2f2" stroke="black" points="546.88,-94.1 546.88,-185.3 1117.37,-185.3 1117.37,-94.1 546.88,-94.1"/>
<text text-anchor="middle" x="832.12" y="-168.7" font-family="Courier New" font-size="14.00">bool[]: reference_bool_array &lt;&lt;Array&gt;&gt;</text>
<text text-anchor="middle" x="832.12" y="-151.9" font-family="Courier New" font-size="14.00">0x6e1540171b6c0c960b71a7020d9f60077f6af931a8bbf590da0223dacf75c7af</text>
<polyline fill="none" stroke="black" points="546.88,-143.7 1117.37,-143.7 "/>
<text text-anchor="middle" x="647.58" y="-127.1" font-family="Courier New" font-size="14.00">offset</text>
<polyline fill="none" stroke="black" points="546.88,-118.9 748.29,-118.9 "/>
<text text-anchor="middle" x="647.58" y="-102.3" font-family="Courier New" font-size="14.00">0</text>
<polyline fill="none" stroke="black" points="748.29,-94.1 748.29,-143.7 "/>
<text text-anchor="middle" x="932.6" y="-127.1" font-family="Courier New" font-size="14.00">type: variable (bytes)</text>
<polyline fill="none" stroke="black" points="748.29,-118.9 1116.92,-118.9 "/>
<text text-anchor="middle" x="857" y="-102.3" font-family="Courier New" font-size="14.00">unallocated (31)</text>
<polyline fill="none" stroke="black" points="965.71,-94.1 965.71,-118.9 "/>
<text text-anchor="middle" x="1041.31" y="-102.3" font-family="Courier New" font-size="14.00">bool (1)</text>
</g>
<!-- 9&#45;&gt;7 -->
<g id="edge7" class="edge">
<title>9:17&#45;&gt;7</title>
<path fill="none" stroke="black" d="M510.88,-352.7C582.9,-352.7 495.12,-244.78 546.88,-194.7 547.71,-193.89 548.56,-193.09 549.41,-192.31"/>
<polygon fill="black" stroke="black" points="552.02,-194.68 557.28,-185.48 547.43,-189.39 552.02,-194.68"/>
</g>
<!-- 8 -->
<g id="node9" class="node">
<title>8</title>
<polygon fill="#f2f2f2" stroke="black" points="564.88,-0.5 564.88,-74.9 1099.36,-74.9 1099.36,-0.5 564.88,-0.5"/>
<text text-anchor="middle" x="832.12" y="-58.3" font-family="Courier New" font-size="14.00">Object &lt;&lt;Struct&gt;&gt;</text>
<polyline fill="none" stroke="black" points="564.88,-50.1 1099.36,-50.1 "/>
<text text-anchor="middle" x="598.09" y="-33.5" font-family="Courier New" font-size="14.00">offset</text>
<polyline fill="none" stroke="black" points="564.88,-25.3 631.29,-25.3 "/>
<text text-anchor="middle" x="598.09" y="-8.7" font-family="Courier New" font-size="14.00">0</text>
<polyline fill="none" stroke="black" points="631.29,-0.5 631.29,-50.1 "/>
<text text-anchor="middle" x="865.33" y="-33.5" font-family="Courier New" font-size="14.00">type: variable (bytes)</text>
<polyline fill="none" stroke="black" points="631.29,-25.3 1099.36,-25.3 "/>
<text text-anchor="middle" x="706.5" y="-8.7" font-family="Courier New" font-size="14.00">unallocated (20)</text>
<polyline fill="none" stroke="black" points="781.71,-0.5 781.71,-25.3 "/>
<text text-anchor="middle" x="865.33" y="-8.7" font-family="Courier New" font-size="14.00">uint88: obj_b (11)</text>
<polyline fill="none" stroke="black" points="948.94,-0.5 948.94,-25.3 "/>
<text text-anchor="middle" x="1024.15" y="-8.7" font-family="Courier New" font-size="14.00">uint8: obj_a (1)</text>
</g>
<!-- 9&#45;&gt;8 -->
<g id="edge8" class="edge">
<title>9:20&#45;&gt;8</title>
<path fill="none" stroke="black" d="M510.88,-327.7C565.47,-327.7 508.6,-123.62 546.88,-84.7 550.12,-81.4 553.5,-78.28 557.01,-75.33"/>
<polygon fill="black" stroke="black" points="559.18,-78.07 564.87,-69.13 554.85,-72.57 559.18,-78.07"/>
</g>
</g>
</svg>
